<svg width="886" height="207" viewBox="0 0 886 207" fill="none" xmlns="http://www.w3.org/2000/svg">
<g opacity="0.92">
<g filter="url(#filter0_d_104_175)">
<path d="M33.0411 198.352V72.3522H92.0811C107.201 72.3522 118.721 75.3522 126.641 81.3522C134.561 87.2322 138.521 95.1522 138.521 105.112C138.521 111.832 136.961 117.592 133.841 122.392C130.721 127.072 126.521 130.732 121.241 133.372C116.081 135.892 110.441 137.152 104.321 137.152L107.561 130.672C114.641 130.672 121.001 131.992 126.641 134.632C132.281 137.152 136.721 140.872 139.961 145.792C143.321 150.712 145.001 156.832 145.001 164.152C145.001 174.952 140.861 183.352 132.581 189.352C124.301 195.352 112.001 198.352 95.6811 198.352H33.0411ZM56.4411 179.992H94.2411C103.001 179.992 109.721 178.552 114.401 175.672C119.081 172.792 121.421 168.172 121.421 161.812C121.421 155.572 119.081 151.012 114.401 148.132C109.721 145.132 103.001 143.632 94.2411 143.632H54.6411V125.452H89.5611C97.7211 125.452 103.961 124.012 108.281 121.132C112.721 118.252 114.941 113.932 114.941 108.172C114.941 102.292 112.721 97.9122 108.281 95.0322C103.961 92.1522 97.7211 90.7122 89.5611 90.7122H56.4411V179.992ZM170.155 198.352L226.855 72.3522H249.895L306.775 198.352H282.295L233.515 84.7722H242.875L194.275 198.352H170.155ZM196.255 169.192L202.555 150.832H270.595L276.895 169.192H196.255Z" fill="#0F1116"/>
</g>
<g filter="url(#filter1_d_104_175)">
<path d="M322.012 63.9791C322.049 59.5343 322.058 59.4008 322.336 59.3161C322.493 59.2683 322.933 59.1049 323.314 58.9535C323.695 58.802 324.573 58.4655 325.267 58.2058C325.96 57.9461 326.884 57.592 327.319 57.4188C328.049 57.1277 328.863 56.8188 331.565 55.8077C332.128 55.5968 332.919 55.2956 333.322 55.1388C336.001 54.0937 336.468 53.9168 336.553 53.9168C336.605 53.9168 336.962 53.7751 337.347 53.602C337.732 53.4288 338.112 53.2872 338.191 53.2872C338.271 53.2872 338.416 53.2352 338.514 53.172C338.669 53.0712 339.857 52.6097 340.547 52.3821C340.678 52.339 341.091 52.1706 341.466 52.0085C341.839 51.8461 342.187 51.7132 342.24 51.7132C342.292 51.7132 342.875 51.5023 343.537 51.2448C346.239 50.1928 346.247 50.1896 349.277 49.0375C349.987 48.7674 352.175 47.9307 353.393 47.4635C354.014 47.2255 354.593 47.0165 354.68 46.9995C354.768 46.9822 355.145 46.8317 355.519 46.6649C355.892 46.498 356.262 46.3617 356.342 46.3617C356.422 46.3617 356.567 46.3098 356.665 46.2465C356.827 46.1414 358.101 45.6481 358.704 45.4567C358.841 45.4136 359.243 45.254 359.597 45.1026C359.951 44.9511 360.35 44.7915 360.483 44.7484C360.841 44.6326 361.757 44.291 362.671 43.9331C363.113 43.7596 364.003 43.4184 364.647 43.1744C365.291 42.9308 366.18 42.5905 366.623 42.4183C367.066 42.2464 367.593 42.0456 367.794 41.9722C367.996 41.8989 368.799 41.5907 369.581 41.2869C370.363 40.9832 371.438 40.5755 371.971 40.3806C372.504 40.1858 373.295 39.8849 373.727 39.7117C375.102 39.1615 376.766 38.5322 376.93 38.5001C377.018 38.4828 377.386 38.3411 377.749 38.1853C378.111 38.0291 378.515 37.8661 378.647 37.823C379.337 37.5954 380.525 37.1339 380.68 37.0331C380.778 36.9699 380.923 36.9179 381.003 36.9179C381.083 36.9179 381.462 36.7763 381.847 36.6031C382.231 36.43 382.589 36.2883 382.641 36.2883C382.693 36.2883 383.277 36.0777 383.938 35.8199C386.32 34.8922 386.623 34.7754 387.881 34.296C388.583 34.0284 389.593 33.6501 390.125 33.4552C390.656 33.2603 391.446 32.9594 391.878 32.7863C393.253 32.236 394.917 31.607 395.081 31.5746C395.169 31.5573 395.546 31.4068 395.92 31.24C396.293 31.0735 396.635 30.9369 396.679 30.9369C396.723 30.9369 397.284 30.7244 397.925 30.4647C398.566 30.205 399.137 29.9925 399.195 29.9925C399.252 29.9925 399.613 29.8508 399.998 29.6777C400.383 29.5045 400.74 29.3629 400.792 29.3629C400.844 29.3629 401.428 29.1523 402.089 28.8945C404.485 27.9617 404.776 27.849 406.073 27.3558C406.798 27.0797 407.588 26.7794 407.829 26.6881C408.07 26.5968 408.927 26.2666 409.732 25.9546C411.398 25.3093 412.77 24.7959 413.139 24.6803C413.278 24.6372 413.696 24.4688 414.07 24.3067C414.444 24.1442 414.815 24.0114 414.894 24.0114C414.974 24.0114 415.12 23.9595 415.217 23.8962C415.379 23.791 416.654 23.2978 417.257 23.1064C417.393 23.0632 417.795 22.9036 418.149 22.7522C418.503 22.6008 418.906 22.4412 419.044 22.3981C419.181 22.355 419.58 22.2105 419.93 22.077C420.279 21.9435 420.861 21.7216 421.223 21.5834C421.585 21.4455 422.474 21.1037 423.199 20.8241C423.924 20.5446 424.846 20.1907 425.249 20.0378C425.651 19.8851 426.573 19.5313 427.298 19.2517C428.023 18.9722 429.043 18.5837 429.567 18.3889C430.09 18.1937 430.979 17.8562 431.543 17.6387C432.107 17.4212 432.732 17.1816 432.934 17.107C433.135 17.0321 433.774 16.7844 434.353 16.5561C434.932 16.3282 435.471 16.1416 435.549 16.1416C435.899 16.1416 437.737 15.0565 438.107 14.6315L438.496 14.1839L438.498 11.1688C438.501 8.75934 438.546 8.04319 438.725 7.60279C438.848 7.29965 439.006 6.87468 439.076 6.65841C439.146 6.44215 439.308 6.15852 439.435 6.02883C439.562 5.89913 439.666 5.73544 439.666 5.66555C439.666 5.59567 439.799 5.44835 439.96 5.33849C440.121 5.22831 440.253 5.10207 440.253 5.058C440.253 4.93114 440.835 4.45518 441.792 3.79915C442.828 3.08992 444.874 2.17985 446.239 1.82067C446.771 1.6809 447.38 1.51689 447.594 1.45645C447.808 1.3957 448.087 1.34627 448.216 1.34627C448.344 1.34627 448.861 1.2682 449.364 1.17314C450.181 1.01857 450.572 1 452.988 1C455.403 1 455.795 1.01857 456.611 1.17314C457.114 1.2682 457.642 1.34659 457.782 1.3469C457.922 1.34722 458.235 1.41773 458.477 1.50367C458.719 1.58961 459.015 1.66044 459.136 1.66107C459.469 1.66264 461.28 2.29979 462.416 2.81542C463.692 3.39401 465.716 4.77312 465.726 5.07028C465.728 5.12128 465.858 5.2516 466.016 5.35989C466.173 5.46818 466.303 5.62022 466.305 5.69829C466.307 5.77605 466.417 5.95327 466.551 6.09178C466.684 6.23029 466.887 6.6093 467.002 6.93386C467.116 7.25841 467.266 7.68338 467.336 7.87824C467.405 8.07309 467.466 9.57403 467.471 11.2141C467.479 14.1288 467.486 14.2043 467.804 14.5588C468.428 15.2557 469.203 15.6643 471.432 16.4743C471.633 16.5476 472.16 16.7482 472.603 16.92C473.045 17.0922 473.935 17.4322 474.579 17.6756C475.223 17.9192 476.145 18.2737 476.628 18.4635C477.111 18.6536 478.033 19.0081 478.677 19.2511C479.322 19.4944 480.211 19.8353 480.654 20.0088C481.568 20.3667 482.483 20.708 482.841 20.8241C482.974 20.8672 483.373 21.0268 483.728 21.1783C484.082 21.3297 484.483 21.4893 484.618 21.5324C484.753 21.5755 485.276 21.7704 485.778 21.9652C486.281 22.1601 486.796 22.355 486.923 22.3981C487.05 22.4412 487.463 22.6008 487.842 22.7522C488.221 22.9036 488.97 23.187 489.507 23.3818C490.044 23.5767 490.839 23.8776 491.273 24.0507C491.706 24.2239 492.757 24.6312 493.608 24.9558C497.025 26.2603 497.725 26.5269 498.146 26.6868C498.388 26.7784 499.31 27.1326 500.195 27.4741C501.081 27.8157 502.003 28.1695 502.245 28.2608C502.487 28.3518 503.343 28.682 504.148 28.9943C504.953 29.3065 505.776 29.6226 505.977 29.6963C506.179 29.7702 506.673 29.9575 507.075 30.1127C507.478 30.2679 508.038 30.4798 508.32 30.5837C508.601 30.6875 509.194 30.9148 509.637 31.0886C510.996 31.6225 512.951 32.3657 513.274 32.4715C513.407 32.5146 513.821 32.683 514.195 32.8451C514.568 33.0076 514.921 33.1404 514.978 33.1404C515.035 33.1404 515.606 33.3529 516.248 33.6126C516.889 33.8723 517.444 34.0848 517.482 34.0848C517.519 34.0848 517.871 34.2176 518.264 34.3801C518.657 34.5422 519.418 34.8343 519.954 35.0292C520.491 35.224 521.285 35.525 521.718 35.6981C522.151 35.8712 523.069 36.2254 523.759 36.4851C524.448 36.7448 525.653 37.2056 526.437 37.5094C527.22 37.8132 528.026 38.1214 528.227 38.1947C528.429 38.2681 528.956 38.4689 529.398 38.6408C529.841 38.813 530.73 39.153 531.374 39.3963C532.019 39.6399 532.941 39.9944 533.424 40.1842C533.907 40.3744 534.829 40.7288 535.473 40.9718C536.117 41.2152 537.007 41.5561 537.449 41.7295C538.29 42.0585 539.23 42.4104 539.63 42.5449C539.758 42.588 540.169 42.7564 540.543 42.9185C540.917 43.081 541.287 43.2138 541.368 43.2138C541.447 43.2138 541.592 43.2657 541.69 43.329C541.842 43.4272 542.943 43.8563 543.717 44.1188C543.845 44.162 544.259 44.3215 544.638 44.473C545.017 44.6244 545.766 44.9077 546.303 45.1026C546.84 45.2974 547.634 45.5984 548.067 45.7715C548.5 45.9446 549.417 46.2988 550.106 46.5585C550.795 46.8182 552.066 47.3033 552.93 47.6363C553.795 47.9694 554.7 48.3163 554.942 48.4076C555.184 48.4985 556.04 48.8288 556.845 49.141C557.65 49.4533 558.473 49.7687 558.674 49.8421C558.876 49.9154 559.403 50.1163 559.846 50.2881C560.288 50.4603 561.178 50.8006 561.822 51.0443C562.466 51.2882 563.355 51.6295 563.798 51.8029C564.638 52.1319 565.579 52.4838 565.978 52.6182C566.107 52.6614 566.518 52.8298 566.892 52.9919C567.265 53.1543 567.636 53.2872 567.716 53.2872C567.795 53.2872 567.94 53.3391 568.039 53.4024C568.19 53.5006 569.291 53.9297 570.065 54.1922C570.193 54.2353 570.607 54.3949 570.986 54.5464C571.365 54.6978 572.114 54.9811 572.651 55.1759C573.187 55.3708 574.111 55.7249 574.703 55.9629C575.296 56.2009 576.218 56.5551 576.754 56.7499C577.289 56.9448 578.081 57.2457 578.514 57.4188C578.947 57.592 579.864 57.9461 580.552 58.2058C582.953 59.1115 583.777 59.4392 583.885 59.5305C584.061 59.6791 584.024 68.5547 583.848 68.5547C583.765 68.5547 583.374 68.4218 582.979 68.2594C582.584 68.0973 582.043 67.8826 581.776 67.7825C580.941 67.4699 578.689 66.6105 577.924 66.313C577.521 66.1566 576.651 65.8175 575.989 65.5603C575.328 65.3028 574.744 65.0919 574.692 65.0919C574.64 65.0919 574.283 64.9503 573.898 64.7771C573.513 64.604 573.134 64.4623 573.054 64.4623C572.975 64.4623 572.829 64.4104 572.731 64.3471C572.576 64.2464 571.388 63.7849 570.698 63.5573C570.566 63.5142 570.162 63.3511 569.8 63.195C569.438 63.0392 569.069 62.8975 568.981 62.8802C568.817 62.8481 567.153 62.2188 565.779 61.6686C565.346 61.4954 564.557 61.1945 564.025 60.9996C563.493 60.8048 562.483 60.4267 561.781 60.1588C560.523 59.6794 560.22 59.5626 557.838 58.6349C557.177 58.3774 556.593 58.1665 556.541 58.1665C556.489 58.1665 556.14 58.0336 555.767 57.8712C555.393 57.7091 554.98 57.5407 554.849 57.4975C554.158 57.2699 552.97 56.8085 552.815 56.7077C552.717 56.6444 552.572 56.5925 552.493 56.5925C552.412 56.5925 552.033 56.4509 551.648 56.2777C551.264 56.1046 550.908 55.9629 550.857 55.9629C550.807 55.9629 550.29 55.7769 549.71 55.5499C548.019 54.8882 547.831 54.8158 546.598 54.3565C545.954 54.1167 545.065 53.7798 544.622 53.6089C544.179 53.4377 543.273 53.0917 542.609 52.8399C541.276 52.3343 541.065 52.2531 539.534 51.654C538.953 51.4271 538.437 51.241 538.387 51.241C538.336 51.241 537.989 51.1082 537.616 50.9458C537.241 50.7836 536.829 50.6152 536.697 50.5721C536.007 50.3445 534.819 49.883 534.664 49.7823C534.566 49.719 534.42 49.6671 534.341 49.6671C534.261 49.6671 533.882 49.5254 533.497 49.3523C533.112 49.1791 532.754 49.0375 532.7 49.0375C532.647 49.0375 532.129 48.8511 531.55 48.6232C530.97 48.3956 530.117 48.0679 529.654 47.8954C529.19 47.7229 528.465 47.4478 528.043 47.2844C527.621 47.121 526.946 46.8635 526.544 46.7121C526.142 46.561 525.219 46.2084 524.495 45.9289C523.77 45.6493 522.881 45.3075 522.518 45.1696C522.156 45.0314 521.574 44.8095 521.225 44.676C520.875 44.5425 520.477 44.398 520.339 44.3549C520.202 44.3118 519.799 44.1522 519.444 44.0008C519.09 43.8494 518.689 43.6898 518.552 43.6466C517.948 43.4552 516.674 42.962 516.513 42.8568C516.414 42.7935 516.269 42.7416 516.19 42.7416C516.11 42.7416 515.73 42.5999 515.346 42.4268C514.961 42.2537 514.603 42.112 514.549 42.112C514.496 42.112 513.978 41.9257 513.398 41.6977C512.819 41.4701 511.966 41.1425 511.502 40.9699C511.039 40.7974 510.314 40.5223 509.892 40.3589C509.47 40.1956 508.795 39.9381 508.393 39.7866C507.99 39.6355 507.068 39.283 506.343 39.0034C505.619 38.7239 504.73 38.382 504.367 38.2442C504.005 38.106 503.423 37.884 503.074 37.7505C502.724 37.6171 502.326 37.4726 502.188 37.4295C502.05 37.3863 501.647 37.2267 501.293 37.0753C500.939 36.9239 500.537 36.7643 500.401 36.7212C499.797 36.5298 498.523 36.0365 498.362 35.9314C498.263 35.8681 498.118 35.8161 498.039 35.8161C497.959 35.8161 497.588 35.6833 497.215 35.5209C496.84 35.3588 496.422 35.1903 496.283 35.1472C495.915 35.0317 494.542 34.5183 492.876 33.8729C492.071 33.561 491.215 33.2307 490.973 33.1395C488.829 32.3279 487.797 31.9313 487.207 31.6911C486.826 31.5359 486.456 31.409 486.384 31.409C486.311 31.409 486.172 31.3571 486.074 31.2938C485.919 31.1931 484.731 30.7316 484.04 30.504C483.909 30.4609 483.496 30.2925 483.122 30.1304C482.749 29.9679 482.396 29.8351 482.339 29.8351C482.281 29.8351 481.71 29.6226 481.069 29.3629C480.428 29.1032 479.872 28.8907 479.835 28.8907C479.798 28.8907 479.446 28.7578 479.053 28.5954C478.66 28.4333 477.902 28.1412 477.368 27.9463C476.835 27.7515 475.692 27.3196 474.83 26.9865C473.967 26.6535 473.064 26.3062 472.822 26.2146C470.345 25.275 469.652 25.0083 469.056 24.7656C468.675 24.6104 468.304 24.4836 468.232 24.4836C468.16 24.4836 468.021 24.4316 467.923 24.3684C467.767 24.2676 466.579 23.8062 465.889 23.5786C465.758 23.5354 465.354 23.3724 464.991 23.2162C464.629 23.0604 464.261 22.9187 464.173 22.9014C464.008 22.869 462.345 22.2401 460.97 21.6898C460.537 21.5167 459.748 21.2157 459.215 21.0209C458.682 20.826 457.724 20.463 457.086 20.2144C456.448 19.9654 455.888 19.7617 455.841 19.7617C455.795 19.7617 455.579 19.6946 455.36 19.6125C455.142 19.5303 454.519 19.4012 453.976 19.3254C453.033 19.1938 452.943 19.1938 451.999 19.327C451.456 19.4035 450.847 19.5234 450.646 19.5933C450.444 19.6632 450.174 19.7563 450.044 19.8001C449.725 19.9081 448.823 20.2446 447.938 20.5858C447.535 20.741 447.041 20.9283 446.84 21.0023C446.638 21.0759 445.833 21.3851 445.049 21.6885C444.265 21.9923 443.06 22.4532 442.371 22.7129C441.682 22.9726 440.764 23.3267 440.33 23.4999C439.898 23.673 439.104 23.9739 438.567 24.1688C438.03 24.3636 437.283 24.6501 436.906 24.8053C436.53 24.9608 436.152 25.1025 436.065 25.1201C435.905 25.1535 434.267 25.7733 432.861 26.333C432.426 26.5061 431.853 26.729 431.587 26.8282C431.321 26.9273 430.741 27.1474 430.299 27.3167C429.856 27.4861 429.296 27.6989 429.054 27.7895C428.813 27.8802 427.957 28.2095 427.151 28.5214C425.564 29.1369 424.139 29.6708 423.753 29.7957C423.618 29.8389 423.034 30.0693 422.454 30.3073C421.875 30.5452 420.959 30.8994 420.42 31.0942C419.88 31.2891 419.129 31.5724 418.75 31.7238C418.372 31.8752 417.96 32.0349 417.835 32.078C417.381 32.2351 416.448 32.5848 415.661 32.8933C415.218 33.0667 414.329 33.408 413.684 33.6519C413.04 33.8956 412.151 34.2359 411.708 34.4081C411.266 34.58 410.739 34.7805 410.537 34.8535C410.336 34.9269 409.579 35.218 408.854 35.5007C408.129 35.7837 407.174 36.1495 406.731 36.3138C406.289 36.4782 405.531 36.7678 405.048 36.9573C403.732 37.4742 401.785 38.2061 401.489 38.2951C401.345 38.3383 400.938 38.4979 400.583 38.6493C400.229 38.8007 399.83 38.9603 399.697 39.0034C399.339 39.1193 398.423 39.4608 397.509 39.8187C397.067 39.9922 396.177 40.3334 395.533 40.5774C394.889 40.821 394 41.1613 393.557 41.3335C393.114 41.5054 392.587 41.7059 392.386 41.779C392.185 41.8523 391.428 42.1435 390.703 42.4262C389.978 42.7092 389.023 43.075 388.58 43.2393C388.138 43.4036 387.38 43.6932 386.897 43.8827C385.581 44.3996 383.634 45.1315 383.338 45.2206C383.194 45.2637 382.786 45.4233 382.432 45.5747C382.078 45.7262 381.679 45.8858 381.546 45.9289C381.188 46.0447 380.272 46.3863 379.358 46.7442C378.916 46.9176 378.026 47.2589 377.382 47.5029C376.738 47.7465 375.849 48.0868 375.406 48.259C374.963 48.4309 374.436 48.6314 374.235 48.7044C374.033 48.7778 373.276 49.0689 372.552 49.3516C371.827 49.6346 370.872 50.0004 370.429 50.1647C369.986 50.3291 369.229 50.6206 368.746 50.8129C368.263 51.0049 367.768 51.1863 367.648 51.2155C367.527 51.2448 367.165 51.3798 366.843 51.5155C366.264 51.7592 365.643 51.9931 365.169 52.1461C365.035 52.1892 364.635 52.3488 364.281 52.5002C363.927 52.6516 363.527 52.8112 363.395 52.8543C363.037 52.9702 362.121 53.3117 361.207 53.6697C360.764 53.8431 359.875 54.1843 359.231 54.4283C358.587 54.672 357.697 55.0123 357.255 55.1844C356.812 55.3563 356.285 55.5572 356.084 55.6305C355.882 55.7038 355.078 56.012 354.297 56.3158C353.515 56.6196 352.438 57.0272 351.904 57.2221C351.37 57.417 350.612 57.7091 350.219 57.8712C349.827 58.0336 349.446 58.1665 349.372 58.1665C349.299 58.1665 349.159 58.2184 349.062 58.2817C348.9 58.3868 347.626 58.8801 347.022 59.0715C346.886 59.1146 346.484 59.2742 346.13 59.4256C345.776 59.5771 345.376 59.7367 345.243 59.7798C344.886 59.8956 343.97 60.2372 343.056 60.5951C342.613 60.7686 341.724 61.1098 341.08 61.3538C340.436 61.5974 339.546 61.9377 339.104 62.1099C338.661 62.2818 338.134 62.4826 337.932 62.556C337.731 62.6293 336.927 62.9375 336.145 63.2413C335.364 63.545 334.287 63.9527 333.753 64.1475C333.219 64.3424 332.461 64.6345 332.068 64.7967C331.675 64.9591 331.294 65.0919 331.221 65.0919C331.148 65.0919 331.008 65.1439 330.91 65.2071C330.748 65.3123 329.474 65.8056 328.871 65.997C328.735 66.0401 328.333 66.1997 327.979 66.3511C327.624 66.5025 327.225 66.6621 327.092 66.7052C326.728 66.8233 325.809 67.1667 324.905 67.5215C324.462 67.6956 323.756 67.9644 323.338 68.1193C322.919 68.2745 322.536 68.4357 322.487 68.4779C322.438 68.52 322.303 68.5547 322.187 68.5547C322.003 68.5547 321.98 67.9317 322.012 63.9791Z" fill="#0F1116" stroke="#0F1116"/>
<path d="M334.337 198.352V176.032L408.498 88.0122L412.818 100.612H335.957V72.3522H444.498V94.6722L370.338 182.692L366.018 170.092H447.198V198.352H334.337ZM440.888 198.352L495.968 121.852L495.788 147.232L442.868 72.3522H483.008L516.848 121.132L499.748 121.312L533.048 72.3522H571.568L518.648 145.792V120.592L574.448 198.352H533.408L499.028 147.052H515.408L481.568 198.352H440.888Z" fill="#7638CF"/>
<rect x="442" y="170.1" width="21" height="23.3" fill="#7638CF"/>
<rect x="438" y="75.0526" width="26" height="20.0162" fill="#7638CF"/>
</g>
<g filter="url(#filter2_d_104_175)">
<path d="M586.858 195.016L643.558 69.0162H666.598L723.478 195.016H698.998L650.218 81.4362H659.578L610.978 195.016H586.858ZM612.958 165.856L619.258 147.496H687.298L693.598 165.856H612.958ZM757.502 195.016V69.0162H809.342C820.502 69.0162 830.042 70.8162 837.962 74.4162C846.002 78.0162 852.182 83.1762 856.502 89.8962C860.822 96.6162 862.982 104.596 862.982 113.836C862.982 123.076 860.822 131.056 856.502 137.776C852.182 144.376 846.002 149.476 837.962 153.076C830.042 156.556 820.502 158.296 809.342 158.296H770.462L780.902 147.676V195.016H757.502ZM839.942 195.016L808.082 149.296H833.102L865.142 195.016H839.942ZM780.902 150.196L770.462 139.036H808.262C818.582 139.036 826.322 136.816 831.482 132.376C836.762 127.936 839.402 121.756 839.402 113.836C839.402 105.796 836.762 99.6162 831.482 95.2962C826.322 90.9762 818.582 88.8162 808.262 88.8162H770.462L780.902 77.2962V150.196Z" fill="#0F1116"/>
</g>
</g>
<defs>
<filter id="filter0_d_104_175" x="29.0411" y="72.3522" width="281.734" height="134" filterUnits="userSpaceOnUse" color-interpolation-filters="sRGB">
<feFlood flood-opacity="0" result="BackgroundImageFix"/>
<feColorMatrix in="SourceAlpha" type="matrix" values="0 0 0 0 0 0 0 0 0 0 0 0 0 0 0 0 0 0 127 0" result="hardAlpha"/>
<feOffset dy="4"/>
<feGaussianBlur stdDeviation="2"/>
<feComposite in2="hardAlpha" operator="out"/>
<feColorMatrix type="matrix" values="0 0 0 0 0 0 0 0 0 0 0 0 0 0 0 0 0 0 0.25 0"/>
<feBlend mode="normal" in2="BackgroundImageFix" result="effect1_dropShadow_104_175"/>
<feBlend mode="normal" in="SourceGraphic" in2="effect1_dropShadow_104_175" result="shape"/>
</filter>
<filter id="filter1_d_104_175" x="317.5" y="0.5" width="271" height="205.852" filterUnits="userSpaceOnUse" color-interpolation-filters="sRGB">
<feFlood flood-opacity="0" result="BackgroundImageFix"/>
<feColorMatrix in="SourceAlpha" type="matrix" values="0 0 0 0 0 0 0 0 0 0 0 0 0 0 0 0 0 0 127 0" result="hardAlpha"/>
<feOffset dy="4"/>
<feGaussianBlur stdDeviation="2"/>
<feComposite in2="hardAlpha" operator="out"/>
<feColorMatrix type="matrix" values="0 0 0 0 0 0 0 0 0 0 0 0 0 0 0 0 0 0 0.25 0"/>
<feBlend mode="normal" in2="BackgroundImageFix" result="effect1_dropShadow_104_175"/>
<feBlend mode="normal" in="SourceGraphic" in2="effect1_dropShadow_104_175" result="shape"/>
</filter>
<filter id="filter2_d_104_175" x="582.858" y="69.0162" width="286.284" height="134" filterUnits="userSpaceOnUse" color-interpolation-filters="sRGB">
<feFlood flood-opacity="0" result="BackgroundImageFix"/>
<feColorMatrix in="SourceAlpha" type="matrix" values="0 0 0 0 0 0 0 0 0 0 0 0 0 0 0 0 0 0 127 0" result="hardAlpha"/>
<feOffset dy="4"/>
<feGaussianBlur stdDeviation="2"/>
<feComposite in2="hardAlpha" operator="out"/>
<feColorMatrix type="matrix" values="0 0 0 0 0 0 0 0 0 0 0 0 0 0 0 0 0 0 0.25 0"/>
<feBlend mode="normal" in2="BackgroundImageFix" result="effect1_dropShadow_104_175"/>
<feBlend mode="normal" in="SourceGraphic" in2="effect1_dropShadow_104_175" result="shape"/>
</filter>
</defs>
</svg>
