<svg width="1293" height="289" viewBox="0 0 1293 289" fill="none" xmlns="http://www.w3.org/2000/svg">
<g filter="url(#filter0_d_98_53)">
<path d="M944.858 203L1001.56 77H1024.6L1081.48 203H1057L1008.22 89.42H1017.58L968.978 203H944.858ZM970.958 173.84L977.258 155.48H1045.3L1051.6 173.84H970.958ZM1115.5 203V77H1167.34C1178.5 77 1188.04 78.8 1195.96 82.4C1204 86 1210.18 91.16 1214.5 97.88C1218.82 104.6 1220.98 112.58 1220.98 121.82C1220.98 131.06 1218.82 139.04 1214.5 145.76C1210.18 152.36 1204 157.46 1195.96 161.06C1188.04 164.54 1178.5 166.28 1167.34 166.28H1128.46L1138.9 155.66V203H1115.5ZM1197.94 203L1166.08 157.28H1191.1L1223.14 203H1197.94ZM1138.9 158.18L1128.46 147.02H1166.26C1176.58 147.02 1184.32 144.8 1189.48 140.36C1194.76 135.92 1197.4 129.74 1197.4 121.82C1197.4 113.78 1194.76 107.6 1189.48 103.28C1184.32 98.96 1176.58 96.8 1166.26 96.8H1128.46L1138.9 85.28V158.18Z" fill="#F2F4F7"/>
</g>
<g filter="url(#filter1_d_98_53)">
<path d="M361.669 203V77H420.709C435.829 77 447.349 80 455.269 86C463.189 91.88 467.149 99.8 467.149 109.76C467.149 116.48 465.589 122.24 462.469 127.04C459.349 131.72 455.149 135.38 449.869 138.02C444.709 140.54 439.069 141.8 432.949 141.8L436.189 135.32C443.269 135.32 449.629 136.64 455.269 139.28C460.909 141.8 465.349 145.52 468.589 150.44C471.949 155.36 473.629 161.48 473.629 168.8C473.629 179.6 469.489 188 461.209 194C452.929 200 440.629 203 424.309 203H361.669ZM385.069 184.64H422.869C431.629 184.64 438.349 183.2 443.029 180.32C447.709 177.44 450.049 172.82 450.049 166.46C450.049 160.22 447.709 155.66 443.029 152.78C438.349 149.78 431.629 148.28 422.869 148.28H383.269V130.1H418.189C426.349 130.1 432.589 128.66 436.909 125.78C441.349 122.9 443.569 118.58 443.569 112.82C443.569 106.94 441.349 102.56 436.909 99.68C432.589 96.8 426.349 95.36 418.189 95.36H385.069V184.64ZM498.783 203L555.483 77H578.523L635.403 203H610.923L562.143 89.42H571.503L522.903 203H498.783ZM524.883 173.84L531.183 155.48H599.223L605.523 173.84H524.883Z" fill="#F2F4F7"/>
</g>
<g filter="url(#filter2_d_98_53)">
<path d="M664.012 76.5138C664.049 71.1843 664.058 71.0242 664.336 70.9227C664.493 70.8653 664.933 70.6694 665.314 70.4879C665.695 70.3063 666.573 69.9028 667.267 69.5915C667.96 69.2801 668.884 68.8554 669.319 68.6478C670.049 68.2987 670.863 67.9284 673.565 66.7161C674.128 66.4632 674.919 66.102 675.322 65.914C678.001 64.6609 678.468 64.4487 678.553 64.4487C678.605 64.4487 678.962 64.2789 679.347 64.0713C679.732 63.8637 680.112 63.6939 680.191 63.6939C680.271 63.6939 680.416 63.6316 680.514 63.5557C680.669 63.4349 681.857 62.8816 682.547 62.6087C682.678 62.557 683.091 62.355 683.466 62.1607C683.839 61.9659 684.187 61.8066 684.24 61.8066C684.292 61.8066 684.875 61.5537 685.537 61.245C688.239 59.9836 688.247 59.9798 691.277 58.5983C691.987 58.2745 694.175 57.2712 695.393 56.7111C696.014 56.4257 696.593 56.1751 696.68 56.1547C696.768 56.134 697.145 55.9536 697.519 55.7535C697.892 55.5535 698.262 55.39 698.342 55.39C698.422 55.39 698.567 55.3278 698.665 55.2519C698.827 55.1258 700.101 54.5344 700.704 54.3049C700.841 54.2532 701.243 54.0618 701.597 53.8802C701.951 53.6987 702.35 53.5073 702.483 53.4556C702.841 53.3167 703.757 52.9072 704.671 52.478C705.113 52.2701 706.003 51.8609 706.647 51.5684C707.291 51.2762 708.18 50.8682 708.623 50.6618C709.066 50.4557 709.593 50.2149 709.794 50.1269C709.996 50.039 710.799 49.6695 711.581 49.3052C712.363 48.941 713.438 48.4522 713.971 48.2185C714.504 47.9849 715.295 47.6241 715.727 47.4165C717.102 46.7567 718.766 46.0022 718.93 45.9637C719.018 45.9429 719.386 45.7731 719.749 45.5862C720.111 45.399 720.515 45.2035 720.647 45.1518C721.337 44.8789 722.525 44.3256 722.68 44.2048C722.778 44.1289 722.923 44.0666 723.003 44.0666C723.083 44.0666 723.462 43.8968 723.847 43.6892C724.231 43.4816 724.589 43.3117 724.641 43.3117C724.693 43.3117 725.277 43.0592 725.938 42.7501C728.32 41.6378 728.623 41.4977 729.881 40.9229C730.583 40.6021 731.593 40.1484 732.125 39.9147C732.656 39.6811 733.446 39.3203 733.878 39.1127C735.253 38.4529 736.917 37.6987 737.081 37.6599C737.169 37.6391 737.546 37.4587 737.92 37.2586C738.293 37.059 738.635 36.8952 738.679 36.8952C738.723 36.8952 739.284 36.6404 739.925 36.329C740.566 36.0176 741.137 35.7628 741.195 35.7628C741.252 35.7628 741.613 35.593 741.998 35.3854C742.383 35.1778 742.74 35.0079 742.792 35.0079C742.844 35.0079 743.428 34.7554 744.089 34.4463C746.485 33.3279 746.776 33.1928 748.073 32.6013C748.798 32.2703 749.588 31.9102 749.829 31.8008C750.07 31.6913 750.927 31.2954 751.732 30.9213C753.398 30.1475 754.77 29.5319 755.139 29.3934C755.278 29.3417 755.696 29.1398 756.07 28.9454C756.444 28.7506 756.815 28.5913 756.894 28.5913C756.974 28.5913 757.12 28.5291 757.217 28.4532C757.379 28.3271 758.654 27.7357 759.257 27.5062C759.393 27.4545 759.795 27.2631 760.149 27.0815C760.503 26.9 760.906 26.7086 761.044 26.6569C761.181 26.6052 761.58 26.432 761.93 26.2719C762.279 26.1119 762.861 25.8458 763.223 25.6801C763.585 25.5148 764.474 25.1049 765.199 24.7697C765.924 24.4345 766.846 24.0103 767.249 23.8268C767.651 23.6438 768.573 23.2195 769.298 22.8843C770.023 22.5492 771.043 22.0834 771.567 21.8498C772.09 21.6158 772.979 21.2111 773.543 20.9503C774.107 20.6895 774.732 20.4023 774.934 20.3128C775.135 20.223 775.774 19.9259 776.353 19.6523C776.932 19.379 777.471 19.1552 777.549 19.1552C777.899 19.1552 779.737 17.8541 780.107 17.3446L780.496 16.8078L780.498 13.1927C780.501 10.3037 780.546 9.44499 780.725 8.91694C780.848 8.55346 781.006 8.04391 781.076 7.7846C781.146 7.5253 781.308 7.18522 781.435 7.02971C781.562 6.8742 781.666 6.67793 781.666 6.59413C781.666 6.51034 781.799 6.3337 781.96 6.20197C782.121 6.06987 782.253 5.91851 782.253 5.86566C782.253 5.71355 782.835 5.14286 783.792 4.35626C784.828 3.50587 786.874 2.41467 788.239 1.98401C788.771 1.81642 789.38 1.61977 789.594 1.5473C789.808 1.47445 790.087 1.41519 790.216 1.41519C790.344 1.41519 790.861 1.32159 791.364 1.2076C792.181 1.02227 792.572 1 794.988 1C797.403 1 797.795 1.02227 798.611 1.2076C799.114 1.32159 799.642 1.41557 799.782 1.41595C799.922 1.41633 800.235 1.50087 800.477 1.60392C800.719 1.70696 801.015 1.79188 801.136 1.79264C801.469 1.79453 803.28 2.55848 804.416 3.17674C805.692 3.87049 807.716 5.52408 807.726 5.88038C807.728 5.94153 807.858 6.09779 808.016 6.22763C808.173 6.35748 808.303 6.53978 808.305 6.63339C808.307 6.72662 808.417 6.93912 808.551 7.1052C808.684 7.27127 808.887 7.72572 809.002 8.11487C809.116 8.50401 809.266 9.01357 809.336 9.24721C809.405 9.48085 809.466 11.2805 809.471 13.247C809.479 16.7418 809.486 16.8324 809.804 17.2574C810.428 18.093 811.203 18.583 813.432 19.5541C813.633 19.6421 814.16 19.8825 814.603 20.0886C815.045 20.2951 815.935 20.7027 816.579 20.9945C817.223 21.2866 818.145 21.7116 818.628 21.9392C819.111 22.1672 820.033 22.5922 820.677 22.8836C821.322 23.1754 822.211 23.5841 822.654 23.7921C823.568 24.2213 824.483 24.6304 824.841 24.7697C824.974 24.8214 825.373 25.0128 825.728 25.1943C826.082 25.3759 826.483 25.5672 826.618 25.6189C826.753 25.6707 827.276 25.9043 827.778 26.1379C828.281 26.3716 828.796 26.6052 828.923 26.6569C829.05 26.7086 829.463 26.9 829.842 27.0815C830.221 27.2631 830.97 27.6028 831.507 27.8364C832.044 28.0701 832.839 28.4309 833.273 28.6385C833.706 28.8461 834.757 29.3345 835.608 29.7237C839.025 31.2878 839.725 31.6075 840.146 31.7992C840.388 31.9091 841.31 32.3337 842.195 32.7432C843.081 33.1528 844.003 33.577 844.245 33.6865C844.487 33.7956 845.343 34.1915 846.148 34.5659C846.953 34.9404 847.776 35.3193 847.977 35.4076C848.179 35.4963 848.673 35.7209 849.075 35.907C849.478 36.0931 850.038 36.3471 850.32 36.4717C850.601 36.5962 851.194 36.8687 851.637 37.0771C852.996 37.7172 854.951 38.6084 855.274 38.7352C855.407 38.7869 855.821 38.9889 856.195 39.1832C856.568 39.378 856.921 39.5373 856.978 39.5373C857.035 39.5373 857.606 39.7921 858.248 40.1035C858.889 40.4148 859.444 40.6696 859.482 40.6696C859.519 40.6696 859.871 40.8289 860.264 41.0237C860.657 41.2181 861.418 41.5683 861.954 41.802C862.491 42.0356 863.285 42.3964 863.718 42.604C864.151 42.8116 865.069 43.2363 865.759 43.5476C866.448 43.859 867.653 44.4116 868.437 44.7759C869.22 45.1401 870.026 45.5096 870.227 45.5976C870.429 45.6855 870.956 45.9263 871.398 46.1324C871.841 46.3389 872.73 46.7465 873.374 47.0383C874.019 47.3304 874.941 47.7554 875.424 47.983C875.907 48.211 876.829 48.636 877.473 48.9274C878.117 49.2192 879.007 49.6279 879.449 49.8359C880.29 50.2303 881.23 50.6523 881.63 50.8135C881.758 50.8652 882.169 51.0671 882.543 51.2615C882.917 51.4563 883.287 51.6156 883.368 51.6156C883.447 51.6156 883.592 51.6778 883.69 51.7537C883.842 51.8715 884.943 52.3859 885.717 52.7007C885.845 52.7524 886.259 52.9438 886.638 53.1254C887.017 53.3069 887.766 53.6466 888.303 53.8802C888.84 54.1139 889.634 54.4747 890.067 54.6823C890.5 54.8899 891.417 55.3145 892.106 55.6259C892.795 55.9373 894.066 56.519 894.93 56.9183C895.795 57.3177 896.7 57.7336 896.942 57.8431C897.184 57.9521 898.04 58.3481 898.845 58.7225C899.65 59.0969 900.473 59.4751 900.674 59.5631C900.876 59.651 901.403 59.8918 901.846 60.0979C902.288 60.3044 903.178 60.7124 903.822 61.0045C904.466 61.2971 905.355 61.7062 905.798 61.9142C906.638 62.3086 907.579 62.7306 907.978 62.8918C908.107 62.9435 908.518 63.1454 908.892 63.3398C909.265 63.5346 909.636 63.6939 909.716 63.6939C909.795 63.6939 909.94 63.7561 910.039 63.832C910.19 63.9498 911.291 64.4642 912.065 64.779C912.193 64.8307 912.607 65.0221 912.986 65.2036C913.365 65.3852 914.114 65.7249 914.651 65.9585C915.187 66.1922 916.111 66.6168 916.703 66.9021C917.296 67.1875 918.218 67.6121 918.754 67.8458C919.289 68.0794 920.081 68.4402 920.514 68.6478C920.947 68.8554 921.864 69.2801 922.552 69.5915C924.953 70.6774 925.777 71.0703 925.885 71.1797C926.061 71.3579 926.024 82 925.848 82C925.765 82 925.374 81.8407 924.979 81.646C924.584 81.4516 924.043 81.1942 923.776 81.0741C922.941 80.6993 920.689 79.6689 919.924 79.3122C919.521 79.1246 918.651 78.7181 917.989 78.4097C917.328 78.101 916.744 77.8481 916.692 77.8481C916.64 77.8481 916.283 77.6782 915.898 77.4706C915.513 77.263 915.134 77.0932 915.054 77.0932C914.975 77.0932 914.829 77.0309 914.731 76.9551C914.576 76.8343 913.388 76.2809 912.698 76.008C912.566 75.9563 912.162 75.7608 911.8 75.5736C911.438 75.3868 911.069 75.2169 910.981 75.1962C910.817 75.1577 909.153 74.4031 907.779 73.7434C907.346 73.5358 906.557 73.1749 906.025 72.9413C905.493 72.7077 904.483 72.2543 903.781 71.9331C902.523 71.3583 902.22 71.2182 899.838 70.1059C899.177 69.7972 898.593 69.5443 898.541 69.5443C898.489 69.5443 898.14 69.385 897.767 69.1902C897.393 68.9958 896.98 68.7939 896.849 68.7422C896.158 68.4693 894.97 67.916 894.815 67.7952C894.717 67.7193 894.572 67.657 894.493 67.657C894.412 67.657 894.033 67.4872 893.648 67.2796C893.264 67.072 892.908 66.9021 892.857 66.9021C892.807 66.9021 892.29 66.6791 891.71 66.4069C890.019 65.6135 889.831 65.5267 888.598 64.976C887.954 64.6884 887.065 64.2846 886.622 64.0796C886.179 63.8743 885.273 63.4595 884.609 63.1575C883.276 62.5513 883.065 62.4539 881.534 61.7357C880.953 61.4635 880.437 61.2404 880.387 61.2404C880.336 61.2404 879.989 61.0812 879.616 60.8864C879.241 60.692 878.829 60.4901 878.697 60.4384C878.007 60.1655 876.819 59.6121 876.664 59.4914C876.566 59.4155 876.42 59.3532 876.341 59.3532C876.261 59.3532 875.882 59.1834 875.497 58.9758C875.112 58.7682 874.754 58.5983 874.7 58.5983C874.647 58.5983 874.129 58.3749 873.55 58.1016C872.97 57.8287 872.117 57.4358 871.654 57.229C871.19 57.0221 870.465 56.6922 870.043 56.4963C869.621 56.3004 868.946 55.9917 868.544 55.8101C868.142 55.629 867.219 55.2062 866.495 54.871C865.77 54.5359 864.881 54.126 864.518 53.9606C864.156 53.7949 863.574 53.5288 863.225 53.3688C862.875 53.2088 862.477 53.0355 862.339 52.9838C862.202 52.9321 861.799 52.7407 861.444 52.5592C861.09 52.3776 860.689 52.1863 860.552 52.1346C859.948 51.9051 858.674 51.3136 858.513 51.1875C858.414 51.1117 858.269 51.0494 858.19 51.0494C858.11 51.0494 857.73 50.8795 857.346 50.672C856.961 50.4644 856.603 50.2945 856.549 50.2945C856.496 50.2945 855.978 50.0711 855.398 49.7978C854.819 49.5249 853.966 49.132 853.502 48.9251C853.039 48.7183 852.314 48.3884 851.892 48.1925C851.47 47.9966 850.795 47.6879 850.393 47.5063C849.99 47.3251 849.068 46.9024 848.343 46.5672C847.619 46.232 846.73 45.8221 846.367 45.6568C846.005 45.4911 845.423 45.225 845.074 45.065C844.724 44.9049 844.326 44.7317 844.188 44.68C844.05 44.6283 843.647 44.4369 843.293 44.2554C842.939 44.0738 842.537 43.8824 842.401 43.8307C841.797 43.6012 840.523 43.0098 840.362 42.8837C840.263 42.8079 840.118 42.7456 840.039 42.7456C839.959 42.7456 839.588 42.5863 839.215 42.3915C838.84 42.1971 838.422 41.9952 838.283 41.9435C837.915 41.805 836.542 41.1894 834.876 40.4156C834.071 40.0415 833.215 39.6456 832.973 39.5361C830.829 38.5631 829.797 38.0875 829.207 37.7995C828.826 37.6134 828.456 37.4613 828.384 37.4613C828.311 37.4613 828.172 37.399 828.074 37.3232C827.919 37.2024 826.731 36.6491 826.04 36.3762C825.909 36.3245 825.496 36.1225 825.122 35.9281C824.749 35.7334 824.396 35.5741 824.339 35.5741C824.281 35.5741 823.71 35.3193 823.069 35.0079C822.428 34.6965 821.872 34.4418 821.835 34.4418C821.798 34.4418 821.446 34.2825 821.053 34.0877C820.66 33.8933 819.902 33.5431 819.368 33.3094C818.835 33.0758 817.692 32.5579 816.83 32.1586C815.967 31.7592 815.064 31.3429 814.822 31.2331C812.345 30.1064 811.652 29.7867 811.056 29.4957C810.675 29.3096 810.304 29.1575 810.232 29.1575C810.16 29.1575 810.021 29.0952 809.923 29.0194C809.767 28.8986 808.579 28.3452 807.889 28.0723C807.758 28.0206 807.354 27.8251 806.991 27.6379C806.629 27.4511 806.261 27.2812 806.173 27.2605C806.008 27.2216 804.345 26.4674 802.97 25.8077C802.537 25.6001 801.748 25.2392 801.215 25.0056C800.682 24.772 799.724 24.3368 799.086 24.0386C798.448 23.74 797.888 23.4958 797.841 23.4958C797.795 23.4958 797.579 23.4154 797.36 23.3169C797.142 23.2184 796.519 23.0636 795.976 22.9727C795.033 22.8149 794.943 22.8149 793.999 22.9746C793.456 23.0663 792.847 23.2101 792.646 23.2939C792.444 23.3777 792.174 23.4894 792.044 23.5419C791.725 23.6713 790.823 24.0748 789.938 24.484C789.535 24.67 789.041 24.8946 788.84 24.9833C788.638 25.0716 787.833 25.4423 787.049 25.8062C786.265 26.1704 785.06 26.723 784.371 27.0344C783.682 27.3458 782.764 27.7704 782.33 27.978C781.898 28.1856 781.104 28.5464 780.567 28.7801C780.03 29.0137 779.283 29.3572 778.906 29.5433C778.53 29.7297 778.152 29.8996 778.065 29.9207C777.905 29.9607 776.267 30.7039 774.861 31.375C774.426 31.5826 773.853 31.8498 773.587 31.9687C773.321 32.0876 772.741 32.3515 772.299 32.5545C771.856 32.7576 771.296 33.0127 771.054 33.1214C770.813 33.2301 769.957 33.625 769.151 33.999C767.564 34.7369 766.139 35.3771 765.753 35.5269C765.618 35.5786 765.034 35.8549 764.454 36.1403C763.875 36.4256 762.959 36.8502 762.42 37.0839C761.88 37.3175 761.129 37.6572 760.75 37.8388C760.372 38.0203 759.96 38.2117 759.835 38.2634C759.381 38.4517 758.448 38.8711 757.661 39.241C757.218 39.449 756.329 39.8581 755.684 40.1506C755.04 40.4428 754.151 40.8508 753.708 41.0573C753.266 41.2633 752.739 41.5038 752.537 41.5913C752.336 41.6793 751.579 42.0284 750.854 42.3674C750.129 42.7067 749.174 43.1453 748.731 43.3423C748.289 43.5393 747.531 43.8866 747.048 44.1138C745.732 44.7336 743.785 45.6112 743.489 45.718C743.345 45.7697 742.938 45.961 742.583 46.1426C742.229 46.3241 741.83 46.5155 741.697 46.5672C741.339 46.7061 740.423 47.1156 739.509 47.5448C739.067 47.7528 738.177 48.1619 737.533 48.4545C736.889 48.7466 736 49.1546 735.557 49.3611C735.114 49.5672 734.587 49.8076 734.386 49.8952C734.185 49.9831 733.428 50.3322 732.703 50.6712C731.978 51.0105 731.023 51.4491 730.58 51.6461C730.138 51.8432 729.38 52.1904 728.897 52.4176C727.581 53.0374 725.634 53.915 725.338 54.0218C725.194 54.0735 724.786 54.2649 724.432 54.4464C724.078 54.628 723.679 54.8193 723.546 54.871C723.188 55.0099 722.272 55.4195 721.358 55.8486C720.916 56.0566 720.026 56.4658 719.382 56.7583C718.738 57.0504 717.849 57.4584 717.406 57.6649C716.963 57.871 716.436 58.1114 716.235 58.199C716.033 58.2869 715.276 58.6361 714.552 58.975C713.827 59.3143 712.872 59.7529 712.429 59.95C711.986 60.147 711.229 60.4965 710.746 60.7271C710.263 60.9574 709.768 61.1748 709.648 61.2099C709.527 61.245 709.165 61.4069 708.843 61.5696C708.264 61.8617 707.643 62.1422 707.169 62.3256C707.035 62.3773 706.635 62.5687 706.281 62.7502C705.927 62.9318 705.527 63.1232 705.395 63.1749C705.037 63.3138 704.121 63.7233 703.207 64.1524C702.764 64.3604 701.875 64.7696 701.231 65.0621C700.587 65.3542 699.697 65.7623 699.255 65.9687C698.812 66.1748 698.285 66.4156 698.084 66.5036C697.882 66.5915 697.078 66.961 696.297 67.3253C695.515 67.6895 694.438 68.1783 693.904 68.4119C693.37 68.6456 692.612 68.9958 692.219 69.1902C691.827 69.385 691.446 69.5443 691.372 69.5443C691.299 69.5443 691.159 69.6066 691.062 69.6824C690.9 69.8085 689.626 70.3999 689.022 70.6294C688.886 70.6811 688.484 70.8725 688.13 71.0541C687.776 71.2356 687.376 71.427 687.243 71.4787C686.886 71.6176 685.97 72.0271 685.056 72.4563C684.613 72.6642 683.724 73.0734 683.08 73.3659C682.436 73.6581 681.546 74.0661 681.104 74.2725C680.661 74.4786 680.134 74.7194 679.932 74.8074C679.731 74.8953 678.927 75.2648 678.145 75.6291C677.364 75.9933 676.287 76.4821 675.753 76.7158C675.219 76.9494 674.461 77.2997 674.068 77.494C673.675 77.6888 673.294 77.8481 673.221 77.8481C673.148 77.8481 673.008 77.9104 672.91 77.9862C672.748 78.1123 671.474 78.7038 670.871 78.9333C670.735 78.985 670.333 79.1763 669.979 79.3579C669.624 79.5394 669.225 79.7308 669.092 79.7825C668.728 79.924 667.809 80.3358 666.905 80.7612C666.462 80.9699 665.756 81.2923 665.338 81.478C664.919 81.6641 664.536 81.8573 664.487 81.9079C664.438 81.9585 664.303 82 664.187 82C664.003 82 663.98 81.253 664.012 76.5138Z" fill="#FF6B35" stroke="#FF6B35"/>
<path d="M676.337 203V180.68L750.498 92.66L754.818 105.26H677.957V77H786.498V99.32L712.338 187.34L708.018 174.74H789.198V203H676.337ZM782.888 203L837.968 126.5L837.788 151.88L784.868 77H825.008L858.848 125.78L841.748 125.96L875.048 77H913.568L860.648 150.44V125.24L916.448 203H875.408L841.028 151.7H857.408L823.568 203H782.888Z" fill="#7638CF"/>
<rect x="784" y="174.7" width="21" height="28" fill="#7638CF"/>
<rect x="780" y="79" width="26" height="24" fill="#7638CF"/>
</g>
<defs>
<filter id="filter0_d_98_53" x="940.858" y="77" width="286.284" height="134" filterUnits="userSpaceOnUse" color-interpolation-filters="sRGB">
<feFlood flood-opacity="0" result="BackgroundImageFix"/>
<feColorMatrix in="SourceAlpha" type="matrix" values="0 0 0 0 0 0 0 0 0 0 0 0 0 0 0 0 0 0 127 0" result="hardAlpha"/>
<feOffset dy="4"/>
<feGaussianBlur stdDeviation="2"/>
<feComposite in2="hardAlpha" operator="out"/>
<feColorMatrix type="matrix" values="0 0 0 0 0 0 0 0 0 0 0 0 0 0 0 0 0 0 0.25 0"/>
<feBlend mode="normal" in2="BackgroundImageFix" result="effect1_dropShadow_98_53"/>
<feBlend mode="normal" in="SourceGraphic" in2="effect1_dropShadow_98_53" result="shape"/>
</filter>
<filter id="filter1_d_98_53" x="357.669" y="77" width="281.734" height="134" filterUnits="userSpaceOnUse" color-interpolation-filters="sRGB">
<feFlood flood-opacity="0" result="BackgroundImageFix"/>
<feColorMatrix in="SourceAlpha" type="matrix" values="0 0 0 0 0 0 0 0 0 0 0 0 0 0 0 0 0 0 127 0" result="hardAlpha"/>
<feOffset dy="4"/>
<feGaussianBlur stdDeviation="2"/>
<feComposite in2="hardAlpha" operator="out"/>
<feColorMatrix type="matrix" values="0 0 0 0 0 0 0 0 0 0 0 0 0 0 0 0 0 0 0.25 0"/>
<feBlend mode="normal" in2="BackgroundImageFix" result="effect1_dropShadow_98_53"/>
<feBlend mode="normal" in="SourceGraphic" in2="effect1_dropShadow_98_53" result="shape"/>
</filter>
<filter id="filter2_d_98_53" x="659.5" y="0.5" width="271" height="210.5" filterUnits="userSpaceOnUse" color-interpolation-filters="sRGB">
<feFlood flood-opacity="0" result="BackgroundImageFix"/>
<feColorMatrix in="SourceAlpha" type="matrix" values="0 0 0 0 0 0 0 0 0 0 0 0 0 0 0 0 0 0 127 0" result="hardAlpha"/>
<feOffset dy="4"/>
<feGaussianBlur stdDeviation="2"/>
<feComposite in2="hardAlpha" operator="out"/>
<feColorMatrix type="matrix" values="0 0 0 0 0 0 0 0 0 0 0 0 0 0 0 0 0 0 0.25 0"/>
<feBlend mode="normal" in2="BackgroundImageFix" result="effect1_dropShadow_98_53"/>
<feBlend mode="normal" in="SourceGraphic" in2="effect1_dropShadow_98_53" result="shape"/>
</filter>
</defs>
</svg>
